<svg width="80" height="80" fill="none" xmlns="http://www.w3.org/2000/svg"><path d="M39.906 0C17.868 0 0 17.91 0 40s17.868 40 39.906 40S79.81 62.09 79.81 40 61.944 0 39.906 0Z" fill="#fff"/><path d="M60.078 32.15c.608 13.467-9.411 28.48-27.15 28.48a26.979 26.979 0 0 1-14.638-4.303c5.068.6 10.126-.814 14.14-3.964-4.177-.076-7.705-2.846-8.926-6.65a9.55 9.55 0 0 0 4.317-.163c-4.593-.927-7.765-5.073-7.662-9.51a9.51 9.51 0 0 0 4.326 1.197c-4.253-2.85-5.457-8.48-2.956-12.784 4.709 5.794 11.749 9.604 19.687 10.004-1.394-5.987 3.14-11.757 9.308-11.757a9.534 9.534 0 0 1 6.97 3.023A19.022 19.022 0 0 0 63.56 23.4a9.61 9.61 0 0 1-4.2 5.297 19.023 19.023 0 0 0 5.483-1.51 19.197 19.197 0 0 1-4.765 4.963Z" fill="#000"/></svg>