<svg width="32" height="32" viewBox="0 0 32 32" fill="none" xmlns="http://www.w3.org/2000/svg"><path d="M16 0C7.164 0 0 7.164 0 16s7.164 16 16 16 16-7.164 16-16S24.836 0 16 0Z"/><path clip-rule="evenodd" d="M23.825 9.428c.857.231 1.532.906 1.763 1.763.428 1.565.412 4.827.412 4.827s0 3.245-.412 4.81a2.506 2.506 0 0 1-1.763 1.763c-1.565.412-7.825.412-7.825.412s-6.244 0-7.825-.428a2.506 2.506 0 0 1-1.763-1.763C6 19.263 6 16.002 6 16.002s0-3.246.412-4.81a2.557 2.557 0 0 1 1.763-1.78C9.74 9 16 9 16 9s6.26 0 7.825.428Zm-4.612 6.574L14.007 19v-5.997l5.206 2.999Z"/></svg>