<svg width="81" height="68" fill="none" xmlns="http://www.w3.org/2000/svg"><path d="M59.582 41.163C72.33 43.512 81 48.134 81 53.454c0 7.7-18.134 13.933-40.5 13.933S0 61.15 0 53.454c0-5.32 8.674-9.943 21.418-12.29 5.538 1.434 12.079 2.26 19.082 2.26s13.544-.826 19.082-2.258v-.003ZM54.702 18.6c10.827 1.799 18.286 5.583 18.286 9.966 0 6.116-14.547 11.075-32.488 11.075-17.942 0-32.488-4.96-32.488-11.075 0-4.38 7.459-8.167 18.286-9.966 4.161 1.054 9.015 1.657 14.202 1.657 5.187 0 10.04-.606 14.202-1.657ZM40.649 0c13.435 0 24.33 3.753 24.33 8.386 0 4.63-10.895 8.383-24.33 8.383-13.436 0-24.33-3.753-24.33-8.383C16.318 3.753 27.212 0 40.648 0Z" fill="#fff"/></svg>