<svg width="51" height="52" fill="none" xmlns="http://www.w3.org/2000/svg"><path fill-rule="evenodd" clip-rule="evenodd" d="M28.547 3.234c-10.859-.252-20.854 7.561-22.915 18.3-2.882 14.272 8.364 27.758 22.915 27.411 9.715-.203 17.464-6.282 20.707-14.344-3.466 9.484-12.502 16.481-23.246 16.233C9.015 50.49-2.328 32.864 4.06 16.815 7.563 7.77 16.43 1.401 26.008 1.348v.005C37.04 1.1 47.215 8.86 49.972 19.721a23.576 23.576 0 0 0-.765-2.19C45.915 9.175 37.57 3.287 28.547 3.233Zm-2.54 48.76c14.372-.277 24.897-12.369 24.895-25.865v-.045a26.32 26.32 0 0 0-1.89-9.711C45.346 6.893 36.04.236 26.008.19V.186C13.954-.082 2.887 8.784.602 20.936c-3.197 16.148 9.263 31.413 25.407 31.058Zm20.347-39.03c-4.15-5.383-10.79-8.755-17.807-8.59v.003c-8.57.054-16.484 5.66-19.608 13.594-5.7 14.069 4.415 29.513 19.608 29.849 6.386.157 12.104-2.49 16.141-6.722-3.476 3.456-8.196 5.685-13.606 5.814-12.956.348-22.986-11.957-20.42-24.984C12.499 12.126 21.42 5.02 31.082 5.267v-.005c5.965.046 11.586 3.039 15.272 7.703Zm4.375 11.721c.055.868.057 1.729.009 2.58-.63 10.234-9.12 18.795-19.656 18.5-13.395-.341-22.288-14.292-17.27-27.01 2.747-7.182 9.71-12.266 17.27-12.33 9.131-.247 17.57 6.465 19.31 15.727a20.2 20.2 0 0 1 .337 2.533Z" fill="#fff"/></svg>